<svg width="37" height="37" viewBox="0 0 37 37" fill="none" xmlns="http://www.w3.org/2000/svg">
<path d="M15.4168 7.9735C15.4168 5.83058 12.9856 4.13012 10.0209 4.625C5.6688 5.34958 3.68005 13.8842 3.85426 15.4167C3.97759 16.5005 6.51364 18.0714 9.49059 16.9583C11.4346 16.2307 12.5123 14.7229 13.1043 13.1042" stroke="white" stroke-width="2" stroke-linecap="round" stroke-linejoin="round"/>
<path d="M21.9951 7.9735C21.9951 5.83058 24.4263 4.13012 27.391 4.625C31.7431 5.34958 33.7318 13.8842 33.5576 15.4167C33.4343 16.5005 30.8982 18.0714 27.9213 16.9583C25.9772 16.2307 25.0615 14.7229 24.4695 13.1042" stroke="white" stroke-width="2" stroke-linecap="round" stroke-linejoin="round"/>
<path d="M12.3335 21.5833V22.3542" stroke="white" stroke-width="2" stroke-linecap="round" stroke-linejoin="round"/>
<path d="M24.6665 21.5833V22.3542" stroke="white" stroke-width="2" stroke-linecap="round" stroke-linejoin="round"/>
<path d="M17.3438 25.0521H19.6562L18.5 26.2083L17.3438 25.0521Z" stroke="white" stroke-width="2" stroke-linecap="round" stroke-linejoin="round"/>
<path d="M6.81401 17.3391C6.38255 19.0052 6.16497 20.7195 6.16651 22.4405C6.16651 28.8723 11.6888 32.375 18.4998 32.375C25.3109 32.375 30.8332 28.8723 30.8332 22.4405C30.8332 20.8048 30.5834 19.0488 30.0731 17.3391M15.8235 7.96271C16.705 7.78953 17.6015 7.70432 18.4998 7.70833C19.7023 7.70833 20.8123 7.87483 21.8314 8.18008" stroke="white" stroke-width="2" stroke-linecap="round" stroke-linejoin="round"/>
</svg>
