<svg width="37" height="38" viewBox="0 0 37 38" fill="none" xmlns="http://www.w3.org/2000/svg">
<path d="M31.4807 7.57595C30.7073 6.79983 29.7883 6.18403 28.7764 5.76385C27.7644 5.34367 26.6795 5.12738 25.5838 5.12738C24.4882 5.12738 23.4033 5.34367 22.3913 5.76385C21.3794 6.18403 20.4604 6.79983 19.687 7.57595L18.4999 8.77845L17.3128 7.57595C16.5394 6.79983 15.6204 6.18403 14.6084 5.76385C13.5965 5.34367 12.5116 5.12738 11.4159 5.12738C10.3202 5.12738 9.23533 5.34367 8.22342 5.76385C7.2115 6.18403 6.29248 6.79983 5.51906 7.57595C2.25072 10.8443 2.05031 16.3634 6.16656 20.5568L18.4999 32.8901L30.8332 20.5568C34.9495 16.3634 34.7491 10.8443 31.4807 7.57595Z" stroke="white" stroke-width="2" stroke-linecap="round" stroke-linejoin="round"/>
<path d="M18.4999 8.77844L13.6745 13.6193C13.0645 14.2343 12.7222 15.0655 12.7222 15.9318C12.7222 16.7981 13.0645 17.6292 13.6745 18.2443C14.2896 18.8543 15.1208 19.1966 15.987 19.1966C16.8533 19.1966 17.6845 18.8543 18.2995 18.2443L21.7837 14.8372C22.6496 13.9805 23.8185 13.4999 25.0366 13.4999C26.2547 13.4999 27.4236 13.9805 28.2895 14.8372L31.9895 18.5372" stroke="white" stroke-width="2" stroke-linecap="round" stroke-linejoin="round"/>
<path d="M27.7501 23.6402L24.6667 20.5568" stroke="white" stroke-width="2" stroke-linecap="round" stroke-linejoin="round"/>
<path d="M23.1251 28.2652L20.0417 25.1818" stroke="white" stroke-width="2" stroke-linecap="round" stroke-linejoin="round"/>
</svg>
